HIERARCHY
ROOT Hips
{
	OFFSET -3.958830 18.904000 13.208200
	CHANNELS 6 Xposition Yposition Zposition Zrotation Yrotation Xrotation 
	JOINT LHipJoint
	{
		OFFSET 0.000000 0.000000 0.000000
		CHANNELS 3 Zrotation Yrotation Xrotation
		JOINT LeftUpLeg
		{
			OFFSET 1.800000 -1.400000 0.085000
			CHANNELS 3 Zrotation Yrotation Xrotation
			JOINT LeftLeg
			{
				OFFSET 2.215000 -6.000000 0.000000
				CHANNELS 3 Zrotation Yrotation Xrotation
				JOINT LeftFoot
				{
					OFFSET 2.500000 -6.900000 0.000000
					CHANNELS 3 Zrotation Yrotation Xrotation
					JOINT LeftToeBase
					{
						OFFSET 0.200000 -0.500000 1.950000
						CHANNELS 3 Zrotation Yrotation Xrotation
						End Site
						{
							OFFSET 0.000000 0.000000 0.000000
						}
					}
				}
			}
		}
	}
	JOINT RHipJoint
	{
		OFFSET 0.000000 0.000000 0.000000
		CHANNELS 3 Zrotation Yrotation Xrotation
		JOINT RightUpLeg
		{
			OFFSET -1.800000 -1.400000 0.085000
			CHANNELS 3 Zrotation Yrotation Xrotation
			JOINT RightLeg
			{
				OFFSET -2.215000 -6.000000 0.000000
				CHANNELS 3 Zrotation Yrotation Xrotation
				JOINT RightFoot
				{
					OFFSET -2.500000 -6.900000 0.000000
					CHANNELS 3 Zrotation Yrotation Xrotation
					JOINT RightToeBase
					{
						OFFSET -0.200000 -0.500000 1.950000
						CHANNELS 3 Zrotation Yrotation Xrotation
						End Site
						{
							OFFSET 0.000000 0.000000 0.000000
						}
					}
				}
			}
		}
	}
	JOINT LowerBack
	{
		OFFSET 0.000000 0.000000 0.000000
		CHANNELS 3 Zrotation Yrotation Xrotation
		JOINT Spine
		{
			OFFSET -0.087000 1.940000 -0.288900
			CHANNELS 3 Zrotation Yrotation Xrotation
			JOINT Spine1
			{
				OFFSET 0.000000 1.950000 0.060000
				CHANNELS 3 Zrotation Yrotation Xrotation
				JOINT Neck
				{
					OFFSET 0.000000 0.000000 0.000000
					CHANNELS 3 Zrotation Yrotation Xrotation
					JOINT Neck1
					{
						OFFSET 0.000000 1.600000 0.340000
						CHANNELS 3 Zrotation Yrotation Xrotation
						JOINT Head
						{
							OFFSET 0.000000 1.667000 -0.240000
							CHANNELS 3 Zrotation Yrotation Xrotation
							End Site
							{
								OFFSET 0.000000 0.000000 0.000000
							}
						}
					}
				}
				JOINT LeftShoulder
				{
					OFFSET 0.000000 0.000000 0.000000
					CHANNELS 3 Zrotation Yrotation Xrotation
					JOINT LeftArm
					{
						OFFSET 2.700000 1.550000 -0.730000
						CHANNELS 3 Zrotation Yrotation Xrotation
						JOINT LeftForeArm
						{
							OFFSET 5.450000 0.000000 0.000000
							CHANNELS 3 Zrotation Yrotation Xrotation
							JOINT LeftHand
							{
								OFFSET 3.450000 0.000000 0.000000
								CHANNELS 3 Zrotation Yrotation Xrotation
								JOINT LeftHandIndex1
								{
									OFFSET 0.750000 0.000000 0.000000
									CHANNELS 3 Zrotation Yrotation Xrotation
									End Site
									{
										OFFSET 0.000000 0.000000 0.000000
									}
								}
							}
						}
					}
				}
				JOINT RightShoulder
				{
					OFFSET 0.000000 0.000000 0.000000
					CHANNELS 3 Zrotation Yrotation Xrotation
					JOINT RightArm
					{
						OFFSET -2.700000 1.550000 -0.730000
						CHANNELS 3 Zrotation Yrotation Xrotation
						JOINT RightForeArm
						{
							OFFSET -5.450000 0.000000 0.000000
							CHANNELS 3 Zrotation Yrotation Xrotation
							JOINT RightHand
							{
								OFFSET -3.450000 0.000000 0.000000
								CHANNELS 3 Zrotation Yrotation Xrotation
								JOINT RightHandIndex1
								{
									OFFSET -0.750000 0.000000 0.000000
									CHANNELS 3 Zrotation Yrotation Xrotation
									End Site
									{
										OFFSET 0.000000 0.000000 0.000000
									}
								}
							}
						}
					}
				}
			}
		}
	}
}
MOTION
Frames: 7
Frame Time: 0.016667
1.263480 18.091150 -4.447480 0.960507 -11.314874 13.287324 -14.963011 13.660123 3.904280 0.130433 -1.817687 -13.177239 -6.124572 2.755970 -4.423135 0.026959 2.849416 3.736833 -0.032890 -0.072180 -0.179340 18.313055 -10.440268 3.318037 4.571398 -0.592804 -5.932770 5.813266 -4.175592 7.822067 -0.284971 -3.112566 3.467545 -0.158170 0.254950 0.081330 -3.719949 -3.137821 -8.616639 14.943585 1.399378 1.843099 -7.444182 2.770130 -21.340274 3.039820 -7.403552 -16.739848 -21.390136 14.039628 49.337349 4.290030 6.254650 5.497910 -6.585170 -2.174125 4.530520 -6.598673 10.867868 -0.866247 3.010221 -1.856518 -0.198559 -3.920302 2.626862 0.307440 0.068730 0.038630 0.136920 2.603797 10.857122 11.092858 15.978233 -5.108305 -1.616639 -8.925325 -7.410703 1.550234 3.027784 -0.989285 -0.071800 0.102710 0.038210 0.042310 
1.276160 18.141960 -4.451340 0.729626 -14.725604 15.442057 -14.916379 13.619406 3.942685 0.513778 -2.160335 -14.930362 -5.785797 2.638647 -4.302261 0.084203 2.775932 3.819721 -0.138340 -0.161140 -0.300530 18.316089 -10.561283 3.346661 4.169967 -0.131373 -8.034253 5.666706 -3.873735 7.286461 -0.137669 -3.024458 3.528674 -0.190620 0.413360 0.103830 -3.717847 -2.801618 -8.675980 14.266300 2.245437 1.950014 -8.004446 3.272644 -24.705034 2.669119 -6.988668 -15.815038 -18.122030 13.064847 45.282941 4.579510 6.549300 9.164960 -0.546629 0.722668 3.994729 -11.919964 5.990257 -1.102599 4.678987 0.086912 -0.030575 -4.145273 2.629486 0.128390 0.201630 -0.092530 0.160890 -2.762259 8.276422 9.901200 21.858452 -2.783158 -1.902753 -9.792462 -6.192589 1.478999 3.053133 -1.082456 -0.073240 0.078640 0.071660 0.113060 
1.311210 18.174830 -4.516040 1.740433 -16.572566 13.184289 -14.934779 13.635415 3.872894 2.665778 -1.723784 -12.958685 -7.327358 3.024526 -3.717303 0.014309 3.034069 3.655881 0.026950 -0.041150 -0.084730 18.288255 -10.588297 3.240258 0.771980 -0.228534 -6.463998 7.427607 -4.373413 6.661976 -0.316130 -3.141858 3.433322 -0.140880 0.209120 0.107610 -3.630846 -2.846297 -8.571979 12.609381 2.019663 2.470691 -7.005063 2.967289 -20.063367 3.055614 -7.502886 -16.916733 -22.010618 14.803528 49.024164 4.164770 7.430580 3.402940 -9.029164 -3.883389 4.523338 -2.788936 9.227966 -0.301418 3.487650 2.874318 -0.368959 -3.957384 2.600189 0.361180 0.044210 0.078920 0.116040 5.365643 12.136812 11.394694 12.299838 -5.397560 -1.250834 -7.281569 -7.436932 1.279927 3.006020 -0.958202 -0.064760 0.094880 0.019960 0.001260 
1.333390 18.176280 -4.558980 2.087252 -18.831260 12.571725 -14.960984 13.676918 3.795175 4.250879 -1.566647 -12.326619 -7.313789 3.216216 -2.892871 -0.013894 3.173579 3.595027 0.010470 -0.098580 -0.055390 18.252244 -10.607076 3.192938 -0.653573 -0.136839 -6.429800 7.603976 -4.435293 6.378838 -0.324233 -3.158756 3.408149 -0.170360 0.181500 0.122010 -3.506249 -2.876403 -8.499141 11.263270 2.030730 2.654798 -6.220607 2.857300 -17.088916 3.562137 -7.760107 -17.819662 -23.163701 15.262234 48.382307 2.833740 8.384980 2.852190 -11.546426 -6.130778 5.331539 -0.882439 10.684243 -0.034556 5.368251 4.105123 -0.244071 -3.945658 2.592776 0.421590 0.027400 0.095480 0.085000 7.258831 14.377363 12.179631 9.447263 -5.601742 -1.088225 -5.986310 -8.622396 1.242825 3.020726 -0.912766 -0.087010 0.082700 0.043710 -0.039180 
1.342500 18.159610 -4.597120 2.094573 -21.027983 12.179840 -14.966650 13.688409 3.676222 5.572631 -1.430989 -11.738788 -6.562491 3.277891 -2.296863 -0.006985 3.221546 3.589076 0.014480 -0.077400 -0.062760 18.259676 -10.602534 3.152041 -1.482780 -0.150701 -6.256690 7.723714 -4.443642 5.996086 -0.336513 -3.195704 3.406617 -0.160150 0.196810 0.118640 -3.496400 -2.885522 -8.330958 10.683539 1.590233 2.705373 -5.909083 2.398321 -14.264855 3.489391 -8.336906 -17.991682 -24.113707 15.995060 45.704923 2.734270 9.350520 1.685580 -12.520393 -7.251734 5.946581 0.128342 11.212877 0.198799 6.295766 6.872670 -0.106790 -3.956489 2.601463 0.420960 0.032410 0.101000 0.100500 8.427932 15.597374 12.229752 7.470248 -3.901821 -0.889141 -5.837699 -9.656848 1.254767 3.039136 -0.909494 -0.091320 0.104540 0.036200 -0.029880 
1.340450 18.146090 -4.639660 1.965844 -23.118191 11.951517 -14.973661 13.731376 3.599041 7.217072 -1.289749 -11.303676 -6.441033 3.461926 -1.519270 0.010811 3.309776 3.565361 0.040680 -0.035160 -0.033220 18.251044 -10.601947 3.134016 -1.435909 -0.141768 -6.365249 7.568719 -4.430113 6.231841 -0.349339 -3.167599 3.422996 -0.139390 0.189980 0.107080 -3.448059 -2.922380 -8.241616 9.965645 1.211031 2.828712 -5.520934 1.977316 -13.142572 3.419124 -8.532187 -17.918356 -24.579483 16.809958 44.821077 2.491030 10.529830 0.572790 -12.942798 -7.848230 6.086367 2.001756 10.604576 0.376623 5.146402 9.856887 -0.229696 -3.962745 2.583797 0.426280 0.025610 0.121360 0.115380 9.050801 16.035885 12.066922 5.826218 -2.653685 -0.735055 -5.039784 -8.938300 1.020362 3.028533 -0.892232 -0.093130 0.127740 0.005990 -0.029590 
1.331780 18.151920 -4.663330 2.339390 -24.765595 11.663267 -14.998535 13.847106 3.521494 7.701261 -1.234079 -11.189043 -5.427940 3.510211 -0.226912 0.002239 3.221358 3.583424 0.063820 0.007160 -0.000030 18.194201 -10.695109 3.141677 -1.574303 -0.104916 -6.670616 7.002224 -4.367109 6.718479 -0.362056 -3.093533 3.437242 -0.126030 0.152590 0.096970 -3.255110 -2.888103 -8.244531 7.791776 1.137564 2.852015 -4.136475 1.630265 -13.453304 3.463055 -8.263490 -17.954433 -24.377083 17.355258 46.215279 2.427890 11.349010 -0.295100 -13.287108 -8.190431 6.202472 2.079492 10.028734 0.360108 6.369836 11.091776 0.020209 -3.945371 2.566778 0.444870 -0.002800 0.164310 0.117900 9.565047 16.022314 11.839926 4.972762 -2.075689 -0.759649 -5.469005 -8.573471 1.023620 3.036747 -0.878114 -0.084340 0.135080 -0.022580 -0.032540 
